<?xml version="1.0" encoding="utf-8"?>
<!-- Generator: Adobe Illustrator 23.0.0, SVG Export Plug-In . SVG Version: 6.00 Build 0)  -->
<svg version="1.1" id="Capa_1" xmlns="http://www.w3.org/2000/svg" xmlns:xlink="http://www.w3.org/1999/xlink" x="0px" y="0px"
	 viewBox="0 0 520.6 60" style="enable-background:new 0 0 520.6 60;" xml:space="preserve">
<style type="text/css">
	.st0{fill-rule:evenodd;clip-rule:evenodd;fill:#FF6600;}
</style>
<path class="st0" d="M511.9,8.5v3.4h-1.7v-8h3c2.1,0,3.3,0.6,3.3,2.4c0,1.5-0.9,2-1.9,2.1l2,3.5h-2l-1.8-3.4H511.9 M511.9,7.1h1.5
	c0.8,0,1.2-0.2,1.2-1c0-0.8-0.9-0.9-1.5-0.9h-1.2V7.1z M520.6,7.8c0,4.7-3.5,7.4-7.5,7.4c-4,0-7.5-2.7-7.5-7.4
	c0-4.7,3.5-7.4,7.5-7.4C517.1,0.4,520.6,3.1,520.6,7.8 M518.6,7.8c0-3.5-2.5-5.9-5.5-5.9c-3,0-5.5,2.4-5.5,5.9
	c0,3.5,2.4,5.9,5.5,5.9C516.1,13.7,518.6,11.3,518.6,7.8z M50.1,24.6h17.8C71.3,10,87.8,10.9,87.8,10.9
	c16.9,0.1,29.5,10.3,29.5,10.3c0.6,0.2,0.6-0.5,0.6-0.5C109.8,8.7,86.5,0,59,0C31.4,0,8.1,8.7,0,20.8c0,0,0,0.6,0.6,0.4
	c0,0,12.6-10.2,29.5-10.3C30.1,10.9,46.7,10,50.1,24.6 M50.1,35.4C46.7,50,30.1,49.1,30.1,49.1C13.2,49,0.6,38.8,0.6,38.8
	C0,38.6,0,39.2,0,39.2C8.1,51.3,31.4,60,59,60c27.5,0,50.8-8.7,59-20.7c0,0-0.1-0.7-0.6-0.5c0,0-12.6,10.2-29.5,10.3
	c0,0-16.6,0.9-19.9-13.7L50.1,35.4 M131.8,0v12.5h19.9V60h15.7V12.5h19.9V0H131.8 M285.5,60h6.6c11.2-0.9,16.4-5.4,16.4-5.4
	c6.3-4.5,6.3-13.9,6.3-13.9V0h-15.3v38c0,0,1.3,10.7-11.9,10.7h-1.2c-13.2,0-11.9-10.7-11.9-10.7V0h-15.3v40.7c0,0-0.1,9.4,6.3,13.9
	c0,0,5.3,4.5,16.4,5.4H285.5 M225.7,12.5l1,0.1c8.5,0,8.1,5.8,8.1,5.8V20c0,7.1-8.4,7.2-8.4,7.2h-14L239.6,60h17.8l-18.2-21.5
	c13.8-4.7,12.4-19.1,12.4-19.1C251.6,0.1,232.3,0,232.3,0h-37.6v60h15.7V12.5H225.7 M361.4,39.6H340V60h-15.7V0h37.6
	c0,0,19.3,0.1,19.3,19.4c0,0,1.4,14.4-12.4,19.1C368.8,38.5,366,39.6,361.4,39.6 M340,27.2h16.1c0,0,8.4-0.1,8.4-7.2v-1.7
	c0,0,0.4-5.8-8.1-5.8l-1-0.1H340L340,27.2L340,27.2z M477.2,12.5l1,0.1c8.5,0,8.1,5.8,8.1,5.8V20c0,7.1-8.4,7.2-8.4,7.2h-14
	L491.1,60h17.8l-18.2-21.5c13.8-4.7,12.4-19.1,12.4-19.1C503,0.1,483.7,0,483.7,0h-37.6v60h15.7V12.5H477.2 M387.4,0c0,20,0,40,0,60
	H438V47.4h-35.1V36.2H430V23.8h-27.1V12.6H438V0H387.4"/>
</svg>
